<svg width="32" height="32" viewBox="0 0 32 32" fill="none" xmlns="http://www.w3.org/2000/svg">
<path d="M30.6667 17.3128H1.33333C0.597333 17.3128 0 16.7155 0 15.9795C0 15.2435 0.597333 14.6462 1.33333 14.6462H30.6667C31.4027 14.6462 32 15.2435 32 15.9795C32 16.7155 31.4027 17.3128 30.6667 17.3128ZM30.6667 7.09049H1.33333C0.597333 7.09049 0 6.49316 0 5.75716C0 5.02116 0.597333 4.42383 1.33333 4.42383H30.6667C31.4027 4.42383 32 5.02116 32 5.75716C32 6.49316 31.4027 7.09049 30.6667 7.09049ZM30.6667 27.5348H1.33333C0.597333 27.5348 0 26.9375 0 26.2015C0 25.4655 0.597333 24.8682 1.33333 24.8682H30.6667C31.4027 24.8682 32 25.4655 32 26.2015C32 26.9375 31.4027 27.5348 30.6667 27.5348Z" fill="black"/>
</svg>
