<svg width="85" height="327" viewBox="0 0 85 327" fill="none" xmlns="http://www.w3.org/2000/svg">
<path d="M154.292 71.5742C146.042 71.5742 144.917 66.716 150.917 56.9997C153.167 52.5152 154.292 47.2834 154.292 41.3041C155.042 35.3248 154.292 30.8404 152.042 27.8508C149.792 24.1138 146.042 22.9926 140.792 24.4875C135.541 25.2348 128.416 30.4667 119.416 40.183C110.415 51.3941 101.04 65.2212 91.2895 81.6642C82.2891 97.3597 73.6638 113.429 65.4134 129.872C57.9131 146.315 51.5379 161.263 46.2876 174.716C41.7874 188.17 39.5374 197.139 39.5374 201.623C38.7873 206.108 38.4123 209.845 38.4123 212.834C38.4123 215.824 39.1623 216.945 40.6624 216.198C42.9125 215.45 46.2876 212.461 50.7878 207.229C56.038 201.997 63.5383 193.402 73.2887 181.443C85.2892 166.495 94.6646 154.163 101.415 144.446C108.165 134.73 113.415 126.882 117.166 120.903C120.916 114.924 123.916 110.439 126.166 107.45C128.416 103.713 131.041 101.097 134.041 99.602C140.042 96.6123 144.542 96.6123 147.542 99.602C151.292 102.592 151.292 109.692 147.542 120.903C143.792 132.114 138.541 145.568 131.791 161.263C125.041 176.959 118.291 193.775 111.54 211.713C105.54 228.904 101.415 245.347 99.1648 261.042C97.6647 275.243 98.7898 286.454 102.54 294.675C106.29 302.897 111.915 305.513 119.416 302.523C137.416 295.797 159.167 274.869 184.668 239.741C210.169 203.865 245.796 153.042 291.548 87.2697C299.798 87.2697 303.173 89.1382 301.673 92.8753C300.923 95.8649 297.548 102.218 291.548 111.934C288.548 117.166 281.797 127.63 271.297 143.325C260.797 158.273 249.171 175.09 236.421 193.775C224.42 211.713 212.045 229.651 199.294 247.589C186.543 264.779 176.043 278.232 167.793 287.949C150.542 306.634 135.166 318.592 121.666 323.824C108.165 328.309 96.9147 328.309 87.9144 323.824C79.664 319.34 73.2888 311.866 68.7886 301.402C64.2884 290.938 62.4133 280.101 63.1633 268.89C64.6634 240.488 67.2885 223.298 71.0387 217.319C74.7888 210.592 73.2888 211.339 66.5385 219.561C50.7878 238.994 36.5372 248.336 23.7867 247.589C11.7862 246.094 4.28589 237.499 1.28577 221.803C-1.71436 206.108 0.53574 184.806 8.03606 157.9C16.2864 130.993 32.7871 101.47 57.5381 69.3319C72.5387 49.8993 87.1643 34.2038 101.415 22.2452C116.416 10.2867 130.291 3.18632 143.042 0.944099C158.042 -2.04554 168.168 2.06519 173.418 13.2763C178.668 23.74 178.668 36.0723 173.418 50.273C168.168 64.4738 161.792 71.5742 154.292 71.5742Z" fill="#BC1311"/>
</svg>
