<svg width="16" height="16" viewBox="0 0 16 16" fill="none" xmlns="http://www.w3.org/2000/svg">
<g clip-path="url(#clip0_1_597)">
<path d="M8.00037 15.2374C7.86653 15.0797 7.70151 14.882 7.51361 14.6505C6.99505 14.0116 6.30446 13.1174 5.61486 12.0953C4.92431 11.0718 4.24092 9.9291 3.73169 8.79243C3.21953 7.64921 2.90039 6.54882 2.90039 5.59998C2.90039 2.78414 5.18453 0.5 8.00037 0.5C10.8163 0.5 13.1004 2.78414 13.1004 5.59998C13.1004 6.54882 12.7812 7.64921 12.2691 8.79243C11.7598 9.9291 11.0764 11.0718 10.3859 12.0953C9.69629 13.1174 9.0057 14.0116 8.48714 14.6505C8.29924 14.882 8.13421 15.0797 8.00037 15.2374ZM5.50039 5.60002C5.50039 6.98016 6.62023 8.10001 8.00037 8.10001C9.38053 8.10001 10.5004 6.98011 10.5004 5.59998C10.5004 4.21984 9.38052 3.1 8.00037 3.1C6.62022 3.1 5.50039 4.21989 5.50039 5.60002Z" stroke="#BC1311"/>
</g>
<defs>
<clipPath id="clip0_1_597">
<rect width="16" height="16" fill="white"/>
</clipPath>
</defs>
</svg>
