<svg width="16" height="16" viewBox="0 0 16 16" fill="none" xmlns="http://www.w3.org/2000/svg">
<g clip-path="url(#clip0_1_607)">
<path d="M14.9737 14.1152L14.9748 14.1141L14.9967 14.091C15.1227 13.9581 15.2478 13.8261 15.3539 13.7203M14.9737 14.1152L15.3548 13.7194C15.3545 13.7197 15.3542 13.72 15.3539 13.7203M14.9737 14.1152C14.8035 14.2959 14.6187 14.4914 14.4444 14.6638C14.2638 14.8424 14.1195 14.9709 14.0276 15.0337L14.0276 15.0337C13.4518 15.4272 12.7603 15.5438 12.0276 15.486C11.2926 15.4279 10.5493 15.1961 9.91544 14.932C8.24654 14.2367 6.40133 12.9408 4.73093 11.2702L4.73078 11.27C3.05903 9.59951 1.76332 7.75383 1.0679 6.08593C0.804054 5.4518 0.572131 4.70821 0.513969 3.97295C0.455994 3.24007 0.572475 2.54847 0.96597 1.97258L0.96615 1.97232C1.02861 1.88078 1.15693 1.73688 1.33603 1.55605C1.5064 1.38405 1.69897 1.20201 1.87796 1.03282L1.88486 1.02629C1.88495 1.0262 1.88505 1.02611 1.88515 1.02602C2.02906 0.890427 2.16777 0.758395 2.27934 0.647188L1.92636 0.293062M14.9737 14.1152L15.3534 13.0068M15.3539 13.7203C15.448 13.6255 15.5007 13.4974 15.5007 13.3638C15.5007 13.2302 15.4479 13.1019 15.3537 13.0071M15.3539 13.7203L15.3537 13.0071M15.3537 13.0071C15.3536 13.007 15.3535 13.0069 15.3534 13.0068M15.3537 13.0071L15.3534 13.0068M15.3534 13.0068L12.7854 10.4392C12.7853 10.4391 12.7852 10.439 12.7851 10.4389C12.6902 10.3447 12.5618 10.2918 12.428 10.2918C12.2943 10.2918 12.166 10.3446 12.0711 10.4389C12.0709 10.439 12.0708 10.4391 12.0707 10.4392L11.3748 11.1355C11.3745 11.1357 11.3743 11.136 11.3741 11.1362C11.0664 11.4461 10.6669 11.6485 10.235 11.7132C9.80319 11.7779 9.36204 11.7015 8.97714 11.4954C7.07213 10.4862 5.51399 8.9283 4.50448 7.02346C4.29836 6.63854 4.22188 6.19739 4.28644 5.76552C4.35102 5.3335 4.55329 4.93385 4.86317 4.62598C4.86337 4.62579 4.86356 4.6256 4.86376 4.6254L5.56149 3.92907C5.56168 3.92889 5.56186 3.9287 5.56205 3.92851C5.65612 3.83363 5.70891 3.70543 5.70891 3.5718C5.70891 3.4381 5.65607 3.30984 5.56191 3.21494C5.56177 3.2148 5.56163 3.21466 5.56149 3.21452L2.99372 0.647496C2.9936 0.647377 2.99348 0.647259 2.99336 0.647141C2.89846 0.552898 2.77013 0.5 2.63637 0.5C2.50245 0.5 2.37397 0.55303 2.27903 0.647496L1.92636 0.293062M1.92636 0.293062C1.82011 0.398969 1.68573 0.526937 1.54198 0.662375L3.34639 0.293062C3.15776 0.105367 2.90248 0 2.63637 0C2.37027 0 2.11499 0.105367 1.92636 0.293062Z" stroke="#BC1311"/>
</g>
<defs>
<clipPath id="clip0_1_607">
<rect width="16" height="16" fill="white"/>
</clipPath>
</defs>
</svg>
