<svg width="281" height="223" viewBox="0 0 281 223" fill="none" xmlns="http://www.w3.org/2000/svg">
<g clip-path="url(#clip0_1_806)">
<path d="M260.497 107.405L260.497 107.405C260.113 99.3994 259.656 91.046 254.056 85.0835L254.056 85.0833C248.279 78.9306 239.64 77.7796 231.391 76.7238C231.39 76.7237 231.389 76.7236 231.389 76.7235L231.579 75.2357C226.952 74.6495 222.183 74.0339 219.365 72.5211L260.497 107.405ZM260.497 107.405L260.498 107.421C260.609 109.735 260.725 112.152 260.991 114.375C261.257 116.588 261.683 118.736 262.473 120.471C263.264 122.206 264.606 123.937 266.103 125.589C267.589 127.23 269.316 128.885 270.97 130.47L271.038 130.536L271.038 130.536C276.823 136.08 282.818 141.912 283.647 150.047C284.486 158.443 279.684 165.723 275.067 172.647L275.029 172.704C273.753 174.612 272.423 176.601 271.324 178.504C270.223 180.41 269.285 182.345 268.881 184.125L268.881 184.126C268.474 185.923 268.483 187.998 268.662 190.137C268.84 192.259 269.196 194.562 269.553 196.865L269.568 196.959L269.568 196.96C270.805 204.924 272.049 213.286 267.719 220.586L267.718 220.587C263.497 227.725 255.462 230.984 247.803 234.029C245.556 234.921 243.217 235.852 241.109 236.859C239.012 237.861 237.041 238.984 235.569 240.296L235.569 240.297C234.201 241.517 232.984 243.201 231.858 245.041C230.725 246.891 229.625 248.997 228.525 251.106C224.695 258.436 220.611 266.135 212.649 269.76C204.687 273.386 196.198 271.412 188.162 269.486L188.161 269.486C185.845 268.932 183.533 268.38 181.394 268.02C179.267 267.662 177.2 267.473 175.386 267.702L175.381 267.702C173.426 267.955 171.287 268.708 169.157 269.632C167.052 270.545 164.854 271.673 162.74 272.757L162.629 272.814L162.626 272.815C155.294 276.596 147.574 280.511 139.416 279.027C131.063 277.493 125.564 271.067 120.378 264.904L120.377 264.903L120.314 264.829C118.812 263.048 117.309 261.267 115.826 259.741C114.329 258.201 112.77 256.831 111.147 255.959L111.146 255.959C109.535 255.093 107.46 254.527 105.297 254.103C103.116 253.676 100.716 253.369 98.413 253.078C90.1625 252.022 81.5233 250.871 75.7456 244.718L75.7455 244.718C70.1453 238.755 69.6884 230.402 69.3047 222.396L69.3047 222.396L69.3039 222.379C69.1927 220.066 69.0766 217.649 68.8102 215.426C68.5451 213.213 68.1185 211.066 67.3285 209.331C66.5381 207.595 65.1961 205.864 63.6991 204.212C62.2122 202.571 60.4858 200.916 58.8316 199.331L58.7635 199.265L58.7634 199.265C52.978 193.721 46.9829 187.889 46.1547 179.753C45.3165 171.358 50.1178 164.078 54.7344 157.155C56.0238 155.232 57.3698 153.225 58.4803 151.303C59.5815 149.398 60.52 147.463 60.9238 145.683L60.9238 145.683C61.3313 143.886 61.3221 141.811 61.1439 139.671C60.9692 137.574 60.6202 135.299 60.271 133.021L60.2444 132.848L60.2437 132.844C58.9995 124.883 57.7531 116.515 62.0853 109.223L62.0867 109.221C66.3086 102.083 74.3666 98.8223 82.0019 95.7704L82.0025 95.7701L82.1984 95.6917C84.3753 94.8206 86.636 93.9159 88.6815 92.9409C90.7772 91.9419 92.7514 90.8217 94.231 89.5061L94.2329 89.5044C95.6005 88.2843 96.8171 86.6005 97.944 84.7603C99.0769 82.9104 100.177 80.8039 101.276 78.6948C105.107 71.365 109.191 63.6667 117.153 60.0413C125.115 56.4157 133.604 58.3893 141.64 60.3155L141.641 60.3157M260.497 107.405L141.641 60.3157M141.641 60.3157C143.956 60.8694 146.269 61.4217 148.407 61.7815C150.534 62.1394 152.6 62.3281 154.415 62.0996C156.376 61.8543 158.52 61.1014 160.651 60.1757C162.762 59.2589 164.963 58.1254 167.076 57.0374L167.175 56.9866C167.175 56.9865 167.175 56.9864 167.175 56.9863M141.641 60.3157L167.175 56.9863M188.133 63.134L188.136 63.1346C190.326 63.5392 192.397 65.0745 194.254 66.8322C196.129 68.6081 198.007 70.8318 199.788 72.9405L199.837 72.9988L199.837 72.9995C203.736 77.6219 207.559 82.1319 212.723 84.9095C217.788 87.6283 223.734 88.4137 229.81 89.1825L229.811 89.1827C232.696 89.5504 235.736 89.9386 238.356 90.5634C240.912 91.173 243.398 92.0766 244.911 93.6875L244.911 93.6877C246.308 95.1752 246.948 97.5698 247.316 99.9619C247.693 102.419 247.831 105.266 247.962 107.964L247.964 108.005L247.964 108.006C248.245 113.893 248.562 120.216 251.047 125.673C253.532 131.131 258.083 135.517 262.342 139.601C262.342 139.601 262.342 139.602 262.343 139.602L188.133 63.134ZM188.133 63.134C185.931 62.732 183.348 63.4151 180.853 64.3876C178.305 65.3806 175.555 66.7995 172.938 68.1523C172.938 68.1526 172.937 68.153 172.936 68.1533L172.89 68.1771C167.334 71.0251 161.897 73.8121 155.999 74.5612C150.303 75.2843 144.576 73.9322 138.723 72.5357L138.656 72.5197C135.679 71.8077 132.675 71.0893 129.954 70.764C127.237 70.4393 124.561 70.4714 122.359 71.4743C120.156 72.4773 118.375 74.4747 116.837 76.7381M188.133 63.134L116.837 76.7381M167.175 56.9863C174.52 53.2083 182.23 49.2892 190.387 50.7748L167.175 56.9863ZM112.425 84.5216L112.414 84.5426C109.617 89.8653 106.883 95.0671 102.612 98.8799L112.425 84.5216ZM112.425 84.5216C112.425 84.5204 112.426 84.5192 112.426 84.518M112.425 84.5216L112.426 84.518M116.837 76.7381C115.286 79.0213 113.849 81.783 112.426 84.518M116.837 76.7381L112.426 84.518M271.139 151.307L271.139 151.305L102.611 98.8804C98.1605 102.849 92.4505 105.147 86.6583 107.449C83.9143 108.533 81.0354 109.675 78.613 110.945C76.2419 112.188 74.0327 113.689 72.8947 115.618C71.7561 117.534 71.553 120.107 71.6603 122.661C71.7692 125.256 72.2204 128.149 72.6474 130.887L72.653 130.923C72.653 130.923 72.653 130.923 72.653 130.923C72.6531 130.923 72.6531 130.923 72.6531 130.923C73.5836 136.904 74.4722 142.743 73.177 148.462L73.177 148.462C71.9091 154.063 68.5894 159.058 65.1856 164.145L65.1854 164.146L65.1683 164.171C63.5573 166.58 61.8608 169.117 60.6153 171.494C59.3952 173.823 58.4435 176.291 58.6627 178.494L58.663 178.497C58.8681 180.526 60.2512 182.581 61.814 184.43C63.4275 186.339 65.497 188.322 67.4601 190.2L68.497 189.116L67.4601 190.2C71.7245 194.28 76.2795 198.674 78.7615 204.125C81.2435 209.575 81.5602 215.897 81.845 221.793L81.845 221.793L81.847 221.834C81.9776 224.532 82.1155 227.379 82.4931 229.836C82.8608 232.228 83.5011 234.623 84.8977 236.11L84.8978 236.111C86.4107 237.721 88.8965 238.625 91.4529 239.235C94.0726 239.859 97.113 240.248 99.9976 240.615L99.999 240.616C106.074 241.384 112.019 242.17 117.085 244.888C122.249 247.665 126.073 252.176 129.971 256.798L129.972 256.799L130.021 256.858C131.802 258.966 133.679 261.19 135.555 262.966C137.412 264.723 139.483 266.259 141.673 266.663L141.673 266.663C143.878 267.07 146.462 266.389 148.958 265.416C151.506 264.423 154.254 263.003 156.869 261.646C157.186 261.485 157.503 261.323 157.818 261.162C159.583 260.261 161.326 259.371 163.106 258.56C166.602 256.968 170.127 255.709 173.803 255.24C179.499 254.517 185.226 255.869 191.079 257.266L191.145 257.281C194.122 257.993 197.127 258.712 199.848 259.037C202.565 259.362 205.24 259.33 207.443 258.327C209.646 257.324 211.426 255.327 212.964 253.063C214.515 250.78 215.953 248.017 217.376 245.282C217.376 245.281 217.377 245.28 217.377 245.28L217.388 245.258C220.185 239.936 222.919 234.734 227.19 230.921C231.641 226.952 237.352 224.654 243.144 222.352C245.881 221.272 248.758 220.13 251.181 218.86C253.554 217.615 255.766 216.113 256.907 214.182C258.042 212.268 258.245 209.697 258.139 207.142C258.03 204.535 257.577 201.628 257.149 198.879C256.218 192.897 255.329 187.058 256.625 181.339L256.625 181.339C257.893 175.738 261.212 170.743 264.616 165.656L264.616 165.656L264.634 165.629C266.245 163.22 267.941 160.684 269.186 158.307C270.406 155.978 271.358 153.51 271.139 151.307Z" fill="#DA0300" stroke="white" stroke-width="3"/>
<path d="M217.334 108.571L217.325 108.573C216.528 108.783 215.78 109.149 215.125 109.649C214.469 110.15 213.92 110.775 213.508 111.49C213.096 112.204 212.83 112.993 212.725 113.811C212.621 114.629 212.679 115.46 212.898 116.255L212.9 116.264L217.641 133.941L219.092 139.352L215.131 135.39L212.152 132.41C212.151 132.409 212.15 132.408 212.149 132.407C211.242 131.508 210.083 130.907 208.826 130.682C207.568 130.457 206.271 130.62 205.108 131.15C203.945 131.679 202.97 132.55 202.314 133.647C201.658 134.743 201.351 136.013 201.434 137.287C201.434 137.288 201.434 137.289 201.434 137.29L201.726 141.494L202.115 147.083L198.985 142.436L188.764 127.254L188.759 127.248C188.302 126.562 187.714 125.973 187.028 125.515C186.342 125.057 185.572 124.74 184.763 124.582C183.954 124.424 183.121 124.427 182.313 124.592L182.013 123.123L182.313 124.592C181.505 124.757 180.738 125.081 180.056 125.544L180.051 125.548C178.67 126.478 177.715 127.918 177.395 129.552C177.075 131.185 177.417 132.879 178.345 134.261L217.334 108.571ZM217.334 108.571C218.943 108.138 220.658 108.362 222.101 109.193C223.545 110.024 224.599 111.394 225.032 113.003L237.298 158.714C237.655 160.05 237.561 161.467 237.032 162.744C236.503 164.022 235.567 165.089 234.37 165.782C233.172 166.474 231.78 166.752 230.409 166.573C229.038 166.395 227.764 165.769 226.784 164.794C226.784 164.793 226.784 164.793 226.784 164.793L217.949 155.96L215.115 153.126L215.392 157.124L216.255 169.59C216.35 170.97 215.987 172.343 215.223 173.495C214.458 174.648 213.334 175.516 212.026 175.964C210.718 176.413 209.298 176.417 207.987 175.977C206.676 175.536 205.547 174.675 204.775 173.527L204.775 173.526L178.346 134.261L217.334 108.571ZM120.644 183.377L124.853 185.99L122.8 181.481L114.103 162.382C113.413 160.866 113.353 159.138 113.937 157.578C114.521 156.017 115.7 154.753 117.217 154.063C118.733 153.372 120.461 153.312 122.021 153.896C123.581 154.48 124.846 155.66 125.536 157.176L144.884 199.666L144.884 199.666C145.443 200.893 145.593 202.267 145.31 203.585C145.028 204.904 144.329 206.096 143.317 206.987C142.305 207.877 141.033 208.418 139.689 208.53C138.346 208.642 137.002 208.318 135.856 207.608L110.017 191.569L105.808 188.957L107.861 193.465L116.558 212.564C117.248 214.081 117.308 215.809 116.724 217.369C116.14 218.929 114.96 220.194 113.444 220.884C111.928 221.574 110.2 221.634 108.639 221.05C107.079 220.466 105.815 219.287 105.125 217.77L85.7766 175.281L85.7765 175.28C85.2175 174.054 85.0681 172.679 85.3503 171.361C85.6326 170.043 86.3315 168.85 87.3438 167.96C88.356 167.069 89.6279 166.528 90.9715 166.416C92.315 166.305 93.6588 166.628 94.8043 167.339C94.8043 167.339 94.8044 167.339 94.8044 167.339L120.644 183.377ZM162.904 182.91L163.526 184.275L164.891 183.654L179.054 177.204C180.57 176.514 182.299 176.454 183.859 177.038C185.419 177.622 186.683 178.802 187.374 180.318C188.064 181.834 188.124 183.562 187.54 185.123C186.956 186.683 185.776 187.947 184.26 188.637L163.015 198.311C161.499 199.002 159.771 199.062 158.211 198.478C156.651 197.894 155.386 196.714 154.696 195.198L135.348 152.708C134.658 151.192 134.598 149.464 135.182 147.904C135.766 146.343 136.945 145.079 138.461 144.389L159.706 134.715C161.222 134.024 162.951 133.964 164.511 134.548C166.071 135.132 167.336 136.312 168.026 137.828C168.716 139.344 168.776 141.073 168.192 142.633C167.608 144.193 166.429 145.457 164.912 146.148L150.749 152.597L149.384 153.219L150.006 154.584L153.23 161.665L153.852 163.03L155.217 162.409L169.38 155.96C170.896 155.269 172.625 155.209 174.185 155.793C175.745 156.377 177.009 157.557 177.7 159.073C178.39 160.589 178.45 162.317 177.866 163.878C177.282 165.438 176.103 166.702 174.586 167.393L160.423 173.842L159.058 174.463L159.68 175.829L162.904 182.91Z" fill="#DA0300" stroke="white" stroke-width="3"/>
</g>
<defs>
<clipPath id="clip0_1_806">
<rect width="249" height="249" fill="white" transform="translate(0 103.189) rotate(-24.4823)"/>
</clipPath>
</defs>
</svg>
