<svg width="156" height="88" viewBox="0 0 156 88" fill="none" xmlns="http://www.w3.org/2000/svg">
<path d="M174.101 57.6837C166.996 55.0526 167.371 51.0639 175.227 45.7176C178.405 43.0845 180.822 39.5342 182.476 35.0666C184.777 30.8382 185.371 27.2483 184.261 24.297C183.357 20.7872 180.438 18.7535 175.503 18.1961C170.774 17.0802 163.191 18.717 152.751 23.1065C141.898 28.613 129.998 35.9543 117.052 45.1307C104.958 53.9878 93.0836 63.2437 81.4289 72.8985C70.4201 82.7924 60.7938 91.9282 52.55 100.306C44.9521 108.923 40.5327 114.907 39.2919 118.257C37.4052 121.369 36.0483 124.041 35.2211 126.275C34.3939 128.509 34.7296 129.586 36.2283 129.506C38.3728 129.665 42.1067 128.508 47.4298 126.034C53.3988 123.799 62.2362 119.769 73.942 113.943C88.4127 106.601 99.8989 100.376 108.401 95.2694C116.902 90.1623 123.595 85.9729 128.479 82.7013C133.363 79.4297 137.188 77.0357 139.953 75.5195C142.924 73.4449 145.909 72.3275 148.906 72.1673C154.901 71.8471 158.776 73.2822 160.533 76.4728C162.935 79.9025 160.97 85.2078 154.639 92.3885C148.307 99.5693 140.063 107.947 129.907 117.522C119.751 127.096 109.285 137.509 98.5086 148.759C88.5849 159.69 80.4828 170.66 74.2022 181.67C68.9812 191.802 66.8481 200.537 67.8029 207.876C68.7578 215.215 72.8784 218.963 80.1648 219.122C97.5281 219.836 122.05 211.136 153.731 193.022C185.619 174.349 230.362 147.736 287.962 113.183C295.067 115.814 297.457 118.287 295.131 120.601C293.658 122.595 288.993 126.266 281.137 131.612C277.106 134.564 268.398 140.23 255.012 148.609C241.833 156.429 227.168 165.286 211.018 175.181C195.72 184.757 180.099 194.213 164.155 203.55C148.418 212.328 135.653 219.031 125.859 223.66C105.833 232.119 89.283 236.151 76.2088 235.755C63.3414 234.8 53.6526 231.212 47.1423 224.991C41.278 219.01 37.8556 211.392 36.8753 202.139C35.8949 192.885 37.2787 184.19 41.0266 176.052C50.1768 155.31 57.1939 143.302 62.0779 140.031C67.1687 136.201 65.67 136.281 57.582 140.271C38.6408 149.768 23.7833 152.204 13.0095 147.579C3.08834 142.635 -0.992704 133.821 0.766376 121.137C2.52546 108.453 10.357 93.2543 24.261 75.5421C38.8108 58.0691 61.1897 41.2727 91.3974 25.1527C109.693 15.4169 126.631 8.35375 142.212 3.96323C158.439 -0.188115 172.353 -1.06833 183.955 1.32258C197.7 3.87261 205.283 10.1731 206.702 20.2242C208.328 29.7168 204.916 38.9312 196.466 47.8673C188.015 56.8035 180.56 60.0756 174.101 57.6837Z" fill="#BC1311"/>
</svg>
