<svg width="56" height="247" viewBox="0 0 56 247" fill="none" xmlns="http://www.w3.org/2000/svg">
<path d="M54.6166 142.272C52.8792 136.206 49.0703 136.402 43.1898 142.86C40.3664 145.458 36.7566 147.387 32.3602 148.646C28.1219 150.457 24.6667 150.85 21.9947 149.825C18.7732 148.958 17.1592 146.436 17.1527 142.261C16.5966 138.244 18.9429 131.903 24.1916 123.239C30.5394 114.261 38.7316 104.456 48.7683 93.8241C58.4133 83.9013 68.412 74.1755 78.7645 64.6468C89.275 55.6695 98.9233 47.8343 107.709 41.141C116.653 34.9991 122.774 31.4561 126.071 30.5117C129.211 29.0159 131.879 27.9532 134.078 27.3237C136.276 26.6941 137.258 27.0095 137.024 28.2698C136.949 30.0816 135.461 33.1928 132.562 37.6033C129.821 42.5653 125.081 49.89 118.341 59.5773C109.877 71.5486 102.784 81.0389 97.0618 88.0482C91.3393 95.0575 86.6747 100.57 83.0681 104.587C79.4615 108.603 76.796 111.753 75.0717 114.037C72.7978 116.479 71.4272 118.96 70.9599 121.48C70.0253 126.522 70.9729 129.831 73.8029 131.407C76.7907 133.535 82.0114 132.039 89.4648 126.921C96.9181 121.803 105.704 115.11 115.823 106.841C125.942 98.573 136.885 90.0685 148.653 81.3279C160.028 73.2962 171.25 66.8006 182.316 61.841C192.442 57.7476 200.922 56.214 207.756 57.24C214.591 58.2661 217.699 61.8512 217.08 67.9955C215.925 82.6472 205.118 103.047 184.66 129.194C163.652 155.499 133.785 192.396 95.0604 239.886C96.7977 245.952 98.8823 248.04 101.314 246.15C103.354 244.969 107.315 241.15 113.195 234.692C116.41 231.384 122.682 224.218 132.011 213.192C140.791 202.324 150.708 190.234 161.761 176.925C172.423 164.324 183.006 151.447 193.51 138.295C203.464 125.3 211.145 114.747 216.551 106.634C226.657 90.0158 232.212 76.1924 233.216 65.1643C233.67 54.2935 231.301 46.0215 226.108 40.3482C221.074 35.2264 214.236 32.1128 205.595 31.0075C196.953 29.9021 188.59 30.8056 180.505 33.7179C159.938 40.8016 147.852 46.3517 144.245 50.3682C140.089 54.5421 140.323 53.2817 144.946 46.5872C155.918 30.9143 159.786 18.469 156.551 9.25142C152.925 0.742704 145.026 -2.96201 132.854 -1.86269C120.682 -0.763382 105.494 5.37663 87.2897 16.5574C69.2437 28.2895 51.0116 46.6387 32.5935 71.6049C21.4643 86.7264 13.0038 100.785 7.21207 113.781C1.57828 127.329 -0.720421 139.026 0.315981 148.874C1.27666 160.532 6.43133 167.112 15.78 168.611C24.5792 170.268 33.6466 167.671 42.9823 160.82C52.3179 153.97 56.196 147.787 54.6166 142.272Z" fill="#BC1311"/>
</svg>
