<svg width="52" height="52" viewBox="0 0 52 52" fill="none" xmlns="http://www.w3.org/2000/svg">
<path d="M38.9475 14.4974H33.9607V14.3674C33.9607 10.1242 30.5079 6.67139 26.2647 6.67139C22.0215 6.67139 18.5687 10.1242 18.5687 14.3674V14.4974H13.0515C12.6199 14.4974 12.2715 14.8458 12.2715 15.2774V42.4422C12.2715 44.0334 13.5663 45.3334 15.1627 45.3334H36.8415C38.4327 45.3334 39.7327 44.0386 39.7327 42.4422V15.2774C39.7275 14.8458 39.3791 14.4974 38.9475 14.4974ZM26.2647 8.22619C29.6499 8.22619 32.4007 10.977 32.4007 14.3622V14.4922H20.1287V14.3622C20.1287 10.9822 22.8795 8.22619 26.2647 8.22619ZM38.1675 42.4422C38.1675 43.1754 37.5695 43.7734 36.8363 43.7734H15.1627C14.4295 43.7734 13.8315 43.1754 13.8315 42.4422V16.0574H18.5687V19.9366C18.5687 20.3682 18.9171 20.7166 19.3487 20.7166C19.7803 20.7166 20.1287 20.3682 20.1287 19.9366V16.0574H32.4007V19.9366C32.4007 20.3682 32.7491 20.7166 33.1807 20.7166C33.6123 20.7166 33.9607 20.3682 33.9607 19.9366V16.0574H38.1675V42.4422Z" fill="#BC1311"/>
</svg>
