<svg width="18" height="24" viewBox="0 0 18 24" fill="none" xmlns="http://www.w3.org/2000/svg">
<path d="M16.9687 4.92147H13.8999V4.84147C13.8999 2.23027 11.7751 0.105469 9.16393 0.105469C6.55273 0.105469 4.42793 2.23027 4.42793 4.84147V4.92147H1.03273C0.767134 4.92147 0.552734 5.13587 0.552734 5.40147V22.1183C0.552734 23.0975 1.34953 23.8975 2.33193 23.8975H15.6727C16.6519 23.8975 17.4519 23.1007 17.4519 22.1183V5.40147C17.4487 5.13587 17.2343 4.92147 16.9687 4.92147ZM9.16393 1.06227C11.2471 1.06227 12.9399 2.75507 12.9399 4.83827V4.91827H5.38793V4.83827C5.38793 2.75827 7.08073 1.06227 9.16393 1.06227ZM16.4887 22.1183C16.4887 22.5695 16.1207 22.9375 15.6695 22.9375H2.33193C1.88073 22.9375 1.51273 22.5695 1.51273 22.1183V5.88147H4.42793V8.26867C4.42793 8.53427 4.64233 8.74867 4.90793 8.74867C5.17353 8.74867 5.38793 8.53427 5.38793 8.26867V5.88147H12.9399V8.26867C12.9399 8.53427 13.1543 8.74867 13.4199 8.74867C13.6855 8.74867 13.8999 8.53427 13.8999 8.26867V5.88147H16.4887V22.1183Z" fill="black"/>
</svg>
