<svg width="65" height="241" viewBox="0 0 65 241" fill="none" xmlns="http://www.w3.org/2000/svg">
<path d="M-138.528 98.0421C-138.579 105.619 -142.456 106.626 -150.161 101.064C-153.72 98.9739 -157.882 97.9129 -162.646 97.8811C-167.405 97.1605 -170.982 97.8255 -173.378 99.8759C-176.369 101.922 -177.286 105.36 -176.127 110.19C-175.564 115.015 -171.439 121.586 -163.752 129.903C-154.875 138.228 -143.916 146.911 -130.875 155.952C-118.425 164.301 -105.674 172.308 -92.6242 179.971C-79.5692 186.947 -67.6984 192.881 -57.0117 197.774C-46.3204 201.978 -39.1882 204.092 -35.6153 204.116C-32.0469 204.828 -29.0717 205.192 -26.6897 205.208C-24.3078 205.224 -23.4099 204.541 -23.9962 203.16C-24.5779 201.09 -26.9392 197.974 -31.0801 193.814C-35.2164 188.965 -42.0186 182.031 -51.4868 173.014C-63.3231 161.914 -73.0913 153.239 -80.7913 146.988C-88.4914 140.737 -94.7119 135.874 -99.4529 132.399C-104.194 128.923 -107.748 126.144 -110.117 124.062C-113.08 121.976 -115.148 119.551 -116.321 116.788C-118.666 111.262 -118.639 107.129 -116.238 104.39C-113.833 100.962 -108.176 101 -99.2667 104.503C-90.3573 108.007 -79.6706 112.9 -67.2065 119.182C-54.7426 125.465 -41.3853 131.753 -27.1348 138.047C-13.4752 143.649 -0.399626 147.524 12.092 149.674C23.3972 151.127 32.3365 150.154 38.9099 146.754C45.4833 143.353 47.602 138.202 45.266 131.298C40.0169 114.732 23.4764 94.646 -4.35558 71.041C-32.783 47.432 -73.0583 14.4451 -125.181 -27.9197C-125.131 -35.4961 -123.621 -38.5857 -120.653 -37.1883C-118.276 -36.4836 -113.235 -33.3503 -105.53 -27.7885C-101.38 -25.0056 -93.0845 -18.751 -80.6434 -9.02478C-68.7979 0.697507 -55.4705 11.4629 -40.6613 23.2714C-26.443 34.3871 -12.227 45.8472 1.98674 57.6517C15.605 69.4522 26.2595 79.1666 33.9504 86.7947C48.732 102.736 58.1657 116.919 62.2514 129.345C65.7416 141.767 65.6726 152.098 62.0445 160.34C58.421 167.892 52.427 173.707 44.0625 177.784C35.698 181.861 27.0518 183.525 18.124 182.777C-4.49558 181.248 -18.1758 178.746 -22.9168 175.271C-28.2533 171.791 -27.667 173.173 -21.1579 179.415C-5.77159 193.983 1.58474 207.119 0.9111 218.824C-0.353447 229.837 -7.24759 236.679 -19.7713 239.35C-32.2951 242.022 -49.2529 239.842 -70.6447 232.811C-92.032 225.092 -115.453 209.782 -140.907 186.882C-156.298 173.003 -168.714 159.488 -178.155 146.338C-187.591 132.499 -193.163 119.719 -194.871 107.998C-197.161 94.2067 -193.824 84.9302 -184.859 80.1684C-176.49 75.4026 -166.665 75.4682 -155.382 80.3651C-144.1 85.262 -138.482 91.1543 -138.528 98.0421Z" fill="#BC1311"/>
</svg>
