<svg width="152" height="96" viewBox="0 0 152 96" fill="none" xmlns="http://www.w3.org/2000/svg">
<path d="M154.792 71.5742C146.542 71.5742 145.417 66.716 151.417 56.9997C153.667 52.5152 154.792 47.2834 154.792 41.3041C155.542 35.3248 154.792 30.8404 152.542 27.8508C150.292 24.1138 146.542 22.9926 141.292 24.4875C136.041 25.2348 128.916 30.4667 119.916 40.183C110.915 51.3941 101.54 65.2212 91.7895 81.6642C82.7891 97.3597 74.1638 113.429 65.9134 129.872C58.4131 146.315 52.0379 161.263 46.7876 174.716C42.2874 188.17 40.0374 197.139 40.0374 201.623C39.2873 206.108 38.9123 209.845 38.9123 212.834C38.9123 215.824 39.6623 216.945 41.1624 216.198C43.4125 215.45 46.7876 212.461 51.2878 207.229C56.538 201.997 64.0383 193.402 73.7887 181.443C85.7892 166.495 95.1646 154.163 101.915 144.446C108.665 134.73 113.915 126.882 117.666 120.903C121.416 114.924 124.416 110.439 126.666 107.45C128.916 103.713 131.541 101.097 134.541 99.602C140.542 96.6123 145.042 96.6123 148.042 99.602C151.792 102.592 151.792 109.692 148.042 120.903C144.292 132.114 139.041 145.568 132.291 161.263C125.541 176.959 118.791 193.775 112.04 211.713C106.04 228.904 101.915 245.347 99.6648 261.042C98.1647 275.243 99.2898 286.454 103.04 294.675C106.79 302.897 112.415 305.513 119.916 302.523C137.916 295.797 159.667 274.869 185.168 239.741C210.669 203.865 246.296 153.042 292.048 87.2697C300.298 87.2697 303.673 89.1382 302.173 92.8753C301.423 95.8649 298.048 102.218 292.048 111.934C289.048 117.166 282.297 127.63 271.797 143.325C261.297 158.273 249.671 175.09 236.921 193.775C224.92 211.713 212.544 229.651 199.794 247.589C187.043 264.779 176.543 278.232 168.293 287.949C151.042 306.634 135.666 318.592 122.166 323.824C108.665 328.309 97.4147 328.309 88.4144 323.824C80.164 319.34 73.7888 311.866 69.2886 301.402C64.7884 290.938 62.9133 280.101 63.6633 268.89C65.1634 240.488 67.7885 223.298 71.5387 217.319C75.2888 210.592 73.7888 211.339 67.0385 219.561C51.2878 238.994 37.0372 248.336 24.2867 247.589C12.2862 246.094 4.78589 237.499 1.78577 221.803C-1.21436 206.108 1.03574 184.806 8.53606 157.9C16.7864 130.993 33.2871 101.47 58.0381 69.3319C73.0387 49.8993 87.6643 34.2038 101.915 22.2452C116.916 10.2867 130.791 3.18632 143.542 0.944099C158.542 -2.04554 168.668 2.06519 173.918 13.2763C179.168 23.74 179.168 36.0723 173.918 50.273C168.668 64.4738 162.292 71.5742 154.792 71.5742Z" fill="#BC1311"/>
</svg>
