<svg width="24" height="24" viewBox="0 0 24 24" fill="none" xmlns="http://www.w3.org/2000/svg">
<g id="Frame">
<g id="Group">
<path id="Vector" d="M12.0005 21.8399C11.6776 21.8407 11.3577 21.7775 11.0594 21.654C10.7611 21.5304 10.4902 21.349 10.2624 21.1201L2.31143 13.1689C1.13087 11.9884 0.480469 10.4188 0.480469 8.74886V8.65118C0.480469 6.98126 1.13087 5.41142 2.31143 4.2311C3.49199 3.05078 5.06207 2.3999 6.73127 2.3999H6.82967C8.49887 2.3999 10.0689 3.0503 11.2495 4.23086L12.0005 4.98182L12.7514 4.23086C13.932 3.0503 15.5021 2.3999 17.1713 2.3999H17.2697C18.9389 2.3999 20.5089 3.0503 21.6895 4.23086C22.8701 5.41142 23.5205 6.98102 23.5205 8.65094V8.74862C23.5205 10.4185 22.8701 11.9884 21.6895 13.1687L13.7385 21.1199C13.5108 21.3488 13.2399 21.5303 12.9416 21.6539C12.6433 21.7775 12.3234 21.8407 12.0005 21.8399ZM11.2805 20.1018C11.6664 20.487 12.3353 20.4861 12.7205 20.1016L20.6714 12.1511C21.1195 11.7053 21.4747 11.175 21.7166 10.5911C21.9584 10.0071 22.0821 9.38094 22.0805 8.74886V8.65118C22.0805 7.36598 21.5798 6.15782 20.6714 5.24918C19.763 4.34054 18.5544 3.8399 17.2697 3.8399H17.1713C16.5392 3.83812 15.9131 3.96175 15.3292 4.20361C14.7453 4.44548 14.2152 4.80078 13.7695 5.24894L12.5095 6.50894C12.4427 6.57583 12.3633 6.6289 12.276 6.66511C12.1886 6.70131 12.095 6.71995 12.0005 6.71995C11.9059 6.71995 11.8123 6.70131 11.7249 6.66511C11.6376 6.6289 11.5583 6.57583 11.4914 6.50894L10.2314 5.24894C9.78577 4.80078 9.25564 4.44548 8.67172 4.20361C8.0878 3.96175 7.4617 3.83812 6.82967 3.8399H6.73127C5.44655 3.8399 4.23791 4.34006 3.32951 5.24894C2.42111 6.15782 1.92047 7.36574 1.92047 8.65094V8.74862C1.91878 9.38067 2.04244 10.0068 2.2843 10.5907C2.52616 11.1747 2.88141 11.7049 3.32951 12.1506L11.2805 20.1018Z" fill="black"/>
</g>
</g>
</svg>
