<svg width="34" height="35" viewBox="0 0 34 35" fill="none" xmlns="http://www.w3.org/2000/svg">
<g id="Frame">
<g id="Group">
<path id="Vector" d="M25.4654 9.9793H22.2048V9.8943C22.2048 7.1199 19.9472 4.8623 17.1728 4.8623C14.3984 4.8623 12.1408 7.1199 12.1408 9.8943V9.9793H8.53344C8.25124 9.9793 8.02344 10.2071 8.02344 10.4893V28.2509C8.02344 29.2913 8.87004 30.1413 9.91384 30.1413H24.0884C25.1288 30.1413 25.9788 29.2947 25.9788 28.2509V10.4893C25.9754 10.2071 25.7476 9.9793 25.4654 9.9793ZM17.1728 5.8789C19.3862 5.8789 21.1848 7.6775 21.1848 9.8909V9.9759H13.1608V9.8909C13.1608 7.6809 14.9594 5.8789 17.1728 5.8789ZM24.9554 28.2509C24.9554 28.7303 24.5644 29.1213 24.085 29.1213H9.91384C9.43444 29.1213 9.04344 28.7303 9.04344 28.2509V10.9993H12.1408V13.5357C12.1408 13.8179 12.3686 14.0457 12.6508 14.0457C12.933 14.0457 13.1608 13.8179 13.1608 13.5357V10.9993H21.1848V13.5357C21.1848 13.8179 21.4126 14.0457 21.6948 14.0457C21.977 14.0457 22.2048 13.8179 22.2048 13.5357V10.9993H24.9554V28.2509Z" fill="white"/>
</g>
</g>
</svg>
