<svg width="58" height="58" viewBox="0 0 58 58" fill="none" xmlns="http://www.w3.org/2000/svg">
<path d="M27.474 1.80109C28.2729 0.858222 29.7271 0.85822 30.526 1.80108L35.0114 7.09526C35.5013 7.67344 36.2758 7.92511 37.012 7.74528L43.7526 6.09868C44.9531 5.80543 46.1296 6.66021 46.2216 7.89255L46.7386 14.8121C46.7951 15.5678 47.2738 16.2267 47.975 16.5139L54.3962 19.1438C55.5397 19.6122 55.9891 20.9952 55.3393 22.0463L51.6903 27.9482C51.2918 28.5928 51.2918 29.4072 51.6903 30.0518L55.3393 35.9537C55.9891 37.0048 55.5397 38.3878 54.3962 38.8562L47.975 41.4861C47.2738 41.7733 46.7951 42.4322 46.7386 43.1879L46.2216 50.1075C46.1296 51.3398 44.9531 52.1946 43.7526 51.9013L37.012 50.2547C36.2758 50.0749 35.5013 50.3266 35.0114 50.9047L30.526 56.1989C29.7271 57.1418 28.2729 57.1418 27.474 56.1989L22.9886 50.9047C22.4987 50.3266 21.7242 50.0749 20.988 50.2547L14.2474 51.9013C13.0469 52.1946 11.8704 51.3398 11.7784 50.1075L11.2614 43.1879C11.2049 42.4322 10.7262 41.7733 10.025 41.4861L3.60384 38.8562C2.46027 38.3878 2.01088 37.0048 2.66075 35.9537L6.30973 30.0518C6.70824 29.4072 6.70824 28.5928 6.30973 27.9482L2.66075 22.0463C2.01089 20.9952 2.46027 19.6122 3.60384 19.1438L10.025 16.5139C10.7262 16.2267 11.2049 15.5678 11.2614 14.8121L11.7784 7.89255C11.8704 6.66021 13.0469 5.80543 14.2474 6.09868L20.988 7.74528C21.7242 7.92511 22.4987 7.67344 22.9886 7.09526L27.474 1.80109Z" fill="#ABE800"/>
<path d="M22.9853 34H21.7253L17.1413 26.884H17.0933C17.1013 27.028 17.1093 27.188 17.1173 27.364C17.1333 27.54 17.1453 27.732 17.1533 27.94C17.1613 28.14 17.1693 28.348 17.1773 28.564C17.1853 28.78 17.1893 28.996 17.1893 29.212V34H16.1933V25.432H17.4413L22.0133 32.524H22.0613C22.0533 32.428 22.0453 32.296 22.0373 32.128C22.0293 31.952 22.0213 31.76 22.0133 31.552C22.0053 31.336 21.9973 31.116 21.9893 30.892C21.9813 30.668 21.9773 30.46 21.9773 30.268V25.432H22.9853V34ZM30.0985 34H25.3105V25.432H30.0985V26.38H26.3905V29.056H29.8825V29.992H26.3905V33.052H30.0985V34ZM41.8185 25.432L39.5385 34H38.4465L36.7785 28.384C36.7305 28.216 36.6825 28.044 36.6345 27.868C36.5865 27.692 36.5425 27.524 36.5025 27.364C36.4625 27.204 36.4265 27.068 36.3945 26.956C36.3705 26.836 36.3545 26.748 36.3465 26.692C36.3385 26.748 36.3225 26.836 36.2985 26.956C36.2825 27.068 36.2545 27.204 36.2145 27.364C36.1745 27.524 36.1305 27.696 36.0825 27.88C36.0425 28.056 35.9945 28.236 35.9385 28.42L34.3185 34H33.2265L30.9585 25.432H32.0865L33.4185 30.664C33.4665 30.848 33.5105 31.032 33.5505 31.216C33.5905 31.392 33.6265 31.568 33.6585 31.744C33.6985 31.912 33.7305 32.076 33.7545 32.236C33.7785 32.396 33.8025 32.552 33.8265 32.704C33.8505 32.544 33.8745 32.38 33.8985 32.212C33.9305 32.044 33.9665 31.872 34.0065 31.696C34.0465 31.512 34.0905 31.328 34.1385 31.144C34.1865 30.96 34.2345 30.78 34.2825 30.604L35.7945 25.432H36.9105L38.4825 30.64C38.5385 30.824 38.5905 31.012 38.6385 31.204C38.6865 31.388 38.7305 31.568 38.7705 31.744C38.8105 31.92 38.8425 32.092 38.8665 32.26C38.8985 32.42 38.9265 32.568 38.9505 32.704C38.9745 32.504 39.0065 32.296 39.0465 32.08C39.0865 31.856 39.1345 31.624 39.1905 31.384C39.2465 31.144 39.3065 30.9 39.3705 30.652L40.6905 25.432H41.8185Z" fill="black"/>
</svg>
