<svg width="24" height="24" viewBox="0 0 24 24" fill="none" xmlns="http://www.w3.org/2000/svg">
<path d="M22.8338 8.51148C22.8338 10.0065 22.2705 11.4907 21.133 12.6282L12.7696 20.9915C12.553 21.1973 12.2821 21.3057 12.0005 21.3057C11.7188 21.3057 11.448 21.1973 11.2313 20.9915L2.86796 12.6282C1.78038 11.5341 1.16992 10.0541 1.16992 8.51148C1.16992 6.96883 1.78038 5.48886 2.86796 4.39482C3.96201 3.30724 5.44198 2.69678 6.98463 2.69678C8.52728 2.69678 10.0073 3.30724 11.1013 4.39482L12.0005 5.30482L12.8996 4.39482C13.9937 3.30724 15.4736 2.69678 17.0163 2.69678C18.5589 2.69678 20.0389 3.30724 21.133 4.39482C21.6743 4.93468 22.1033 5.57642 22.3952 6.283C22.6871 6.98957 22.8362 7.74698 22.8338 8.51148Z" fill="#BC1311"/>
</svg>
