<svg width="186" height="165" viewBox="0 0 186 165" fill="none" xmlns="http://www.w3.org/2000/svg">
<path d="M88.6994 25.1847C83.9625 20.4659 75.735 20.4614 70.9982 25.1892C69.011 27.1899 67.757 29.8024 67.4391 32.6042C67.1211 35.406 67.7578 38.2331 69.2461 40.6282L3.85984 151.405C1.2644 155.802 0.204551 160.937 0.847084 166.002C1.48962 171.067 3.79805 175.775 7.40912 179.384C9.54248 181.529 12.0801 183.23 14.8751 184.388C17.6701 185.546 20.6671 186.139 23.6925 186.131C27.8017 186.131 31.8477 185.024 35.3925 182.934L52.7957 172.661L63.719 191.242C64.7099 192.931 66.1259 194.331 67.8261 195.302C69.5264 196.274 71.4514 196.783 73.4095 196.778C75.3828 196.778 77.3742 196.268 79.1805 195.216L130.026 165.246C132.659 163.706 134.56 161.164 135.206 158.405C135.597 156.97 135.695 155.471 135.493 153.997C135.291 152.524 134.794 151.106 134.032 149.83L123.059 131.189L146.165 117.552C148.555 119.057 151.386 119.703 154.192 119.383C156.998 119.063 159.611 117.796 161.6 115.791C163.942 113.443 165.257 110.261 165.257 106.945C165.257 103.628 163.942 100.447 161.6 98.0985L88.6994 25.1847ZM30.8046 175.158C25.4174 178.328 18.2015 177.402 13.7942 172.999C9.27859 168.484 8.39353 161.489 11.6357 155.993L75.6538 47.5325L139.256 111.135L30.8046 175.158ZM108.862 151.514L77.4329 170.046L72.2219 161.204L103.642 142.659L108.862 151.514ZM126.247 154.404C126.404 154.671 126.503 154.968 126.539 155.276C126.574 155.584 126.546 155.896 126.455 156.192C126.383 156.46 126.258 156.71 126.086 156.927C125.915 157.145 125.7 157.325 125.457 157.456L74.6242 187.427C74.3688 187.586 74.084 187.692 73.7868 187.739C73.4895 187.785 73.1859 187.772 72.894 187.699C72.6021 187.626 72.3277 187.495 72.0874 187.314C71.847 187.133 71.6455 186.906 71.4949 186.645L60.5806 168.073L64.446 165.792L71.9464 178.522C72.5543 179.553 73.5471 180.301 74.7064 180.601C75.8657 180.901 77.0965 180.728 78.1283 180.12L117.338 157.005C118.369 156.397 119.117 155.404 119.417 154.245C119.717 153.086 119.544 151.855 118.936 150.823L111.422 138.071L115.292 135.786L126.247 154.404ZM155.219 109.41C154.555 110.044 153.673 110.397 152.756 110.397C151.838 110.397 150.956 110.044 150.293 109.41L77.3878 36.5009C76.7745 35.8396 76.4414 34.9664 76.4583 34.0648C76.4753 33.1631 76.8411 32.303 77.4788 31.6653C78.1165 31.0276 78.9765 30.6619 79.8782 30.6449C80.7799 30.6279 81.6531 30.9611 82.3143 31.5743L155.224 104.484C156.578 105.847 156.578 108.051 155.219 109.41ZM134.316 52.4817C134.735 52.9014 135.233 53.2344 135.781 53.4615C136.329 53.6887 136.916 53.8057 137.509 53.8057C138.102 53.8057 138.689 53.6887 139.237 53.4615C139.785 53.2344 140.282 52.9014 140.701 52.4817L160.389 32.7936C160.809 32.3743 161.141 31.8766 161.368 31.3288C161.595 30.781 161.712 30.1939 161.712 29.601C161.712 29.0081 161.595 28.421 161.368 27.8732C161.141 27.3254 160.809 26.8277 160.389 26.4085C159.97 25.9892 159.473 25.6566 158.925 25.4297C158.377 25.2028 157.79 25.0861 157.197 25.0861C156.604 25.0861 156.017 25.2028 155.469 25.4297C154.921 25.6566 154.424 25.9892 154.004 26.4085L134.316 46.0966C133.897 46.5156 133.564 47.0132 133.336 47.561C133.109 48.1088 132.992 48.6961 132.992 49.2891C132.992 49.8822 133.109 50.4694 133.336 51.0172C133.564 51.565 133.897 52.0627 134.316 52.4817ZM132.375 1.1616C131.237 0.7884 129.999 0.880509 128.929 1.4178C127.86 1.95509 127.046 2.89388 126.667 4.02902L117.902 30.4635C117.715 31.0265 117.642 31.6208 117.685 32.2124C117.728 32.8039 117.887 33.3812 118.154 33.9112C118.42 34.4412 118.788 34.9136 119.237 35.3014C119.686 35.6892 120.206 35.9847 120.769 36.1712C121.332 36.3577 121.927 36.4315 122.518 36.3883C123.11 36.3452 123.687 36.1859 124.217 35.9196C124.747 35.6534 125.22 35.2853 125.607 34.8365C125.995 34.3877 126.291 33.8669 126.477 33.3038L135.242 6.86935C135.618 5.73219 135.527 4.49242 134.989 3.42226C134.451 2.3521 133.511 1.53903 132.375 1.1616ZM179.929 51.556L153.494 60.3208C152.473 60.6563 151.606 61.3449 151.047 62.2628C150.488 63.1806 150.275 64.2677 150.446 65.3285C150.617 66.3894 151.16 67.3546 151.979 68.0507C152.797 68.7468 153.837 69.1282 154.912 69.1263C156.104 69.1263 181.635 60.5059 182.764 60.1311C183.902 59.7551 184.843 58.9427 185.381 57.8727C185.919 56.8027 186.01 55.5628 185.634 54.4257C185.258 53.2885 184.446 52.3473 183.376 51.8092C182.306 51.271 181.066 51.1799 179.929 51.556Z" fill="#DA0300"/>
</svg>
