<svg width="97" height="185" viewBox="0 0 97 185" fill="none" xmlns="http://www.w3.org/2000/svg">
<path d="M170.552 86.4104C170.721 80.8949 173.995 80.2429 180.372 84.4542C183.326 86.0508 186.803 86.9106 190.803 87.0338C194.788 87.6583 197.803 87.2492 199.85 85.8066C202.396 84.3793 203.224 81.8954 202.332 78.3547C201.94 74.8295 198.586 69.9584 192.271 63.7414C184.955 57.4937 175.898 50.9414 165.098 44.0845C154.782 37.7444 144.209 31.6473 133.378 25.7932C122.531 20.4405 112.662 15.8708 103.769 12.0839C94.8614 8.7984 88.9073 7.10949 85.9071 7.01715C82.9223 6.42339 80.4299 6.09573 78.4297 6.03416C76.4296 5.9726 75.6641 6.45092 76.1333 7.46913C76.587 8.98874 78.5177 11.3066 81.9253 14.4228C85.3175 18.0404 90.9136 23.2315 98.7135 29.996C108.467 38.3263 116.525 44.8479 122.886 49.5606C129.248 54.2734 134.39 57.9448 138.313 60.575C142.236 63.2051 145.175 65.3031 147.129 66.8689C149.583 68.4501 151.279 70.2589 152.217 72.2953C154.094 76.3681 154.001 79.3765 151.939 81.3206C149.862 83.7661 145.112 83.6199 137.688 80.8819C130.265 78.1441 121.372 74.3572 111.011 69.5213C100.649 64.6854 89.5369 59.8265 77.675 54.9444C66.2977 50.5792 55.3819 47.4828 44.9274 45.6554C35.4577 44.3601 27.934 44.8814 22.3565 47.2191C16.779 49.5569 14.9131 53.2635 16.7589 58.3392C20.8888 70.5114 34.4422 85.4832 57.419 103.254C80.8959 121.041 114.165 145.904 157.227 177.845C157.057 183.36 155.737 185.578 153.268 184.498C151.283 183.935 147.103 181.548 140.726 177.337C137.287 175.223 130.425 170.495 120.141 163.152C110.356 155.825 99.3447 147.707 87.1062 138.798C75.3523 130.406 63.6061 121.764 51.8677 112.87C40.6293 103.992 31.8448 96.6956 25.5141 90.98C13.3682 79.0629 5.68407 68.5378 2.46163 59.4047C-0.260766 50.2871 -0.0292654 42.766 3.15613 36.8414C6.3261 31.4183 11.4576 27.3103 18.5507 24.5173C25.6438 21.7243 32.9328 20.694 40.4179 21.4263C59.3883 23.0139 70.8351 25.1229 74.7582 27.753C79.1813 30.3986 78.7121 29.3804 73.3507 24.6984C60.6739 13.7687 54.7167 4.04958 55.4791 -4.45895C56.7261 -12.4507 62.6308 -17.2877 73.1933 -18.9702C83.7557 -20.6526 97.9604 -18.7097 115.807 -13.1416C133.639 -7.072 153.05 4.56689 174.043 21.7751C186.735 32.2034 196.935 42.3041 204.642 52.0771C212.334 62.3515 216.799 71.7737 218.036 80.3438C219.728 90.4335 216.769 97.1178 209.161 100.397C202.052 103.691 193.802 103.437 184.409 99.6349C175.016 95.8327 170.397 91.4245 170.552 86.4104Z" fill="#BC1311"/>
</svg>
