<svg width="123" height="101" viewBox="0 0 123 101" fill="none" xmlns="http://www.w3.org/2000/svg">
<path d="M255.186 -41.0006C251.478 -48.3709 255.313 -51.5591 266.689 -50.5651C271.706 -50.5702 276.886 -51.9162 282.227 -54.6032C287.906 -56.6201 291.575 -59.3053 293.235 -62.6588C295.562 -66.3483 294.878 -70.2022 291.183 -74.2208C288.156 -78.5751 280.281 -82.5894 267.556 -86.2636C253.496 -89.266 236.931 -91.4279 217.86 -92.7493C199.794 -93.7365 181.563 -94.2208 163.166 -94.2022C145.106 -93.5135 128.887 -92.4914 114.51 -91.1361C100.469 -89.1107 91.4456 -87.0904 87.4394 -85.0752C83.0962 -83.73 79.5892 -82.3857 76.9185 -81.0423C74.2477 -79.6988 73.5832 -78.525 74.925 -77.5208C76.6038 -75.8465 80.7913 -74.1748 87.4874 -72.5057C94.5206 -70.1665 105.569 -67.3286 120.634 -63.992C139.381 -59.9888 154.611 -57.1551 166.324 -55.4911C178.037 -53.827 187.408 -52.6634 194.434 -52.0001C201.461 -51.3369 206.815 -50.6719 210.497 -50.0053C214.847 -49.6745 218.363 -48.5049 221.047 -46.4965C226.414 -42.4797 228.436 -38.4595 227.114 -34.4359C226.128 -29.7422 219.785 -26.5515 208.085 -24.8637C196.384 -23.1759 182.006 -21.8205 164.951 -20.7977C147.896 -19.7748 129.84 -18.2481 110.782 -16.2176C92.7286 -13.853 76.1856 -10.1491 61.153 -5.10605C47.7927 -0.0646747 38.2829 5.97839 32.6235 13.0231C26.9642 20.0678 27.1551 26.2686 33.1963 31.6255C47.2946 44.6835 75.7643 54.7103 118.605 61.7058C162.114 68.3654 223.527 77.3532 302.843 88.6691C306.551 96.0395 306.398 99.8943 302.386 100.234C299.378 100.907 292.186 100.747 280.81 99.7527C274.788 99.4236 262.406 98.0954 243.666 95.7681C225.594 93.105 205.347 90.2764 182.924 87.2824C161.507 84.6227 139.921 81.6279 118.167 78.2981C97.0802 74.6324 80.3432 71.2975 67.9557 68.2934C43.5114 61.2792 25.9189 52.9174 15.1782 43.2078C5.10526 33.1623 0.0495927 23.1118 0.0111897 13.0562C0.309866 3.67059 4.12189 -5.38335 11.4473 -14.1057C18.7727 -22.828 27.6116 -29.3732 37.9641 -33.7411C64.0104 -45.164 80.547 -50.5438 87.5738 -49.8805C95.2682 -49.5532 93.9264 -50.5573 83.5484 -52.8931C59.1105 -58.2314 44.3605 -66.7637 39.2984 -78.4902C35.2411 -89.8825 39.5491 -100.445 52.2224 -110.179C64.8958 -119.912 84.9361 -127.474 112.344 -132.865C140.088 -137.586 173.877 -136.112 213.71 -128.443C237.811 -123.775 258.405 -117.762 275.492 -110.405C292.916 -102.378 305.494 -93.1734 313.227 -82.7904C322.639 -70.7332 323.516 -59.8405 315.86 -50.1123C308.872 -40.7199 297.855 -35.1781 282.81 -33.4869C267.764 -31.7956 258.556 -34.3002 255.186 -41.0006Z" fill="#BC1311"/>
</svg>
