<svg width="171" height="133" viewBox="0 0 171 133" fill="none" xmlns="http://www.w3.org/2000/svg">
<path id="a" d="M72.1954 -38.0925C66.6773 -38.0925 65.9248 -41.3443 69.938 -47.8478C71.4429 -50.8494 72.1954 -54.3513 72.1954 -58.3535C72.697 -62.3556 72.1954 -65.3573 70.6904 -67.3583C69.1855 -69.8597 66.6773 -70.6101 63.1658 -69.6096C59.6543 -69.1093 54.8886 -65.6074 48.8689 -59.1039C42.8492 -51.5998 36.5786 -42.3448 30.0573 -31.3389C24.0375 -20.8332 18.2686 -10.0774 12.7505 0.928566C7.7341 11.9345 3.47012 21.94 -0.0413837 30.9448C-3.05125 39.9497 -4.55618 45.9529 -4.55618 48.9546C-5.05783 51.9562 -5.30865 54.4576 -5.30865 56.4586C-5.30865 58.4597 -4.807 59.2101 -3.80371 58.7098C-2.29878 58.2096 -0.0413876 56.2085 2.96848 52.7066C6.47999 49.2047 11.4964 43.4516 18.0178 35.4473C26.0441 25.4418 32.3147 17.1874 36.8295 10.6839C41.3443 4.18034 44.8558 -1.0725 47.364 -5.07465C49.8722 -9.07683 51.8788 -12.0785 53.3837 -14.0795C54.8886 -16.5809 56.6444 -18.3318 58.651 -19.3324C62.6641 -21.3335 65.674 -21.3335 67.6806 -19.3324C70.1888 -17.3313 70.1888 -12.5787 67.6806 -5.07465C65.1724 2.4294 61.6608 11.4343 57.146 21.94C52.6312 32.4456 48.1164 43.7017 43.6017 55.7082C39.5885 67.2144 36.8295 78.2204 35.3245 88.7261C34.3212 98.2312 35.0737 105.735 37.5819 111.238C40.0901 116.741 43.8525 118.492 48.8689 116.491C60.9084 111.989 75.4561 97.9811 92.512 74.4684C109.568 50.4554 133.396 16.437 163.996 -27.5868C169.514 -27.5868 171.772 -26.3362 170.768 -23.8348C170.267 -21.8337 168.009 -17.5814 163.996 -11.0779C161.99 -7.57603 157.475 -0.572243 150.452 9.93346C143.429 19.9389 135.653 31.195 127.125 43.7017C119.099 55.7082 110.822 67.7147 102.294 79.7212C93.7661 91.2274 86.7431 100.232 81.225 106.736C69.6872 119.243 59.4034 127.247 50.3738 130.749C41.3443 133.75 33.8196 133.75 27.7999 130.749C22.2818 127.747 18.0178 122.744 15.0079 115.741C11.9981 108.737 10.744 101.483 11.2456 93.9789C12.2489 74.9686 14.0047 63.4624 16.5129 59.4603C19.0211 54.9578 18.0178 55.4581 13.503 60.9611C2.96849 73.9681 -6.56276 80.2215 -15.0907 79.7212C-23.117 78.7207 -28.1335 72.9676 -30.14 62.4619C-32.1466 51.9562 -30.6417 37.6985 -25.6252 19.6887C-20.1071 1.67901 -9.07098 -18.0817 7.48328 -39.5933C17.5162 -52.6004 27.2982 -63.106 36.8295 -71.1104C46.8623 -79.1147 56.1428 -83.8673 64.6707 -85.3681C74.7036 -87.3692 81.4758 -84.6177 84.9873 -77.1136C88.4988 -70.1098 88.4988 -61.8554 84.9873 -52.3502C81.4758 -42.8451 77.2118 -38.0925 72.1954 -38.0925Z" fill="#BC1311"/>
</svg>
